<svg xmlns="http://www.w3.org/2000/svg" xmlns:xlink="http://www.w3.org/1999/xlink" id="terminal" width="640" baseProfile="full" version="1.1" viewBox="0 0 640 410"><defs><style id="generated-style" type="text/css">@keyframes roll{0%{transform:translateY(0)}5.915%{transform:translateY(-442px)}7.21%{transform:translateY(-884px)}7.821%{transform:translateY(-1326px)}8.305%{transform:translateY(-1768px)}8.76%{transform:translateY(-2210px)}9.669%{transform:translateY(-2652px)}10.31%{transform:translateY(-3094px)}10.681%{transform:translateY(-3536px)}11.03%{transform:translateY(-3978px)}11.357%{transform:translateY(-4420px)}12.099%{transform:translateY(-4862px)}12.339%{transform:translateY(-5304px)}12.35%{transform:translateY(-5746px)}15.872%{transform:translateY(-6188px)}16.498%{transform:translateY(-6630px)}16.956%{transform:translateY(-7072px)}17.338%{transform:translateY(-7514px)}18.975%{transform:translateY(-7956px)}18.979%{transform:translateY(-8398px)}30.685%{transform:translateY(-8840px)}32.442%{transform:translateY(-9282px)}33.257%{transform:translateY(-9724px)}33.264%{transform:translateY(-10166px)}38.379%{transform:translateY(-10608px)}39.59%{transform:translateY(-11050px)}40.489%{transform:translateY(-11492px)}40.5%{transform:translateY(-11934px)}44.782%{transform:translateY(-12376px)}45.185%{transform:translateY(-12818px)}45.742%{transform:translateY(-13260px)}46.477%{transform:translateY(-13702px)}46.488%{transform:translateY(-14144px)}46.51%{transform:translateY(-14586px)}46.52%{transform:translateY(-15028px)}46.535%{transform:translateY(-15470px)}52.883%{transform:translateY(-15912px)}54.102%{transform:translateY(-16354px)}54.48%{transform:translateY(-16796px)}55.64%{transform:translateY(-17238px)}56.335%{transform:translateY(-17680px)}56.677%{transform:translateY(-18122px)}56.695%{transform:translateY(-18564px)}56.71%{transform:translateY(-19006px)}56.721%{transform:translateY(-19448px)}64.502%{transform:translateY(-19890px)}64.986%{transform:translateY(-20332px)}66.798%{transform:translateY(-20774px)}67.041%{transform:translateY(-21216px)}67.056%{transform:translateY(-21658px)}71.549%{transform:translateY(-22100px)}72.24%{transform:translateY(-22542px)}72.56%{transform:translateY(-22984px)}72.906%{transform:translateY(-23426px)}73.808%{transform:translateY(-23868px)}73.822%{transform:translateY(-24310px)}80.287%{transform:translateY(-24752px)}81.196%{transform:translateY(-25194px)}82.619%{transform:translateY(-25636px)}82.629%{transform:translateY(-26078px)}82.64%{transform:translateY(-26520px)}82.651%{transform:translateY(-26962px)}96.362%,to{transform:translateY(-27404px)}}#screen{font-family:&apos;DejaVu Sans Mono&apos;,monospace;font-style:normal;font-size:14px}text{dominant-baseline:text-before-edge;white-space:pre}:root{--animation-duration: 27489ms}#screen_view{animation-duration:27489ms;animation-iteration-count:infinite;animation-name:roll;animation-timing-function:steps(1,end);animation-fill-mode:forwards}</style><style id="user-style" type="text/css">.foreground{fill:#ccc}.background{fill:#0c0c0c}.color3{fill:#c19c00}.color6{fill:#3a96dd}.color9{fill:#e74856}.color10{fill:#16c60c}.color11{fill:#f9f1a5}.color14{fill:#61d6d6}</style></defs><svg id="screen" width="640" height="408" preserveAspectRatio="xMidYMin slice" viewBox="0 0 640 408"><rect width="100%" height="100%" class="background"/><defs><g id="g1"><text class="foreground" textLength="248">inferal73@MacBook-Pro-Ivan ~ %</text><text x="248" class="background" textLength="8"></text><text x="256" class="foreground" textLength="384"></text></g><g id="g2"><text class="foreground" textLength="256">inferal73@MacBook-Pro-Ivan ~ % b</text><text x="256" class="background" textLength="8"></text><text x="264" class="foreground" textLength="376"></text></g><g id="g3"><text class="foreground" textLength="264">inferal73@MacBook-Pro-Ivan ~ % br</text><text x="264" class="background" textLength="8"></text><text x="272" class="foreground" textLength="368"></text></g><g id="g4"><text class="foreground" textLength="272">inferal73@MacBook-Pro-Ivan ~ % bra</text><text x="272" class="background" textLength="8"></text><text x="280" class="foreground" textLength="360"></text></g><g id="g5"><text class="foreground" textLength="280">inferal73@MacBook-Pro-Ivan ~ % brai</text><text x="280" class="background" textLength="8"></text><text x="288" class="foreground" textLength="352"></text></g><g id="g6"><text class="foreground" textLength="288">inferal73@MacBook-Pro-Ivan ~ % brain</text><text x="288" class="background" textLength="8"></text><text x="296" class="foreground" textLength="344"></text></g><g id="g7"><text class="foreground" textLength="296">inferal73@MacBook-Pro-Ivan ~ % brain-</text><text x="296" class="background" textLength="8"></text><text x="304" class="foreground" textLength="336"></text></g><g id="g8"><text class="foreground" textLength="304">inferal73@MacBook-Pro-Ivan ~ % brain-e</text><text x="304" class="background" textLength="8"></text><text x="312" class="foreground" textLength="328"></text></g><g id="g9"><text class="foreground" textLength="312">inferal73@MacBook-Pro-Ivan ~ % brain-ev</text><text x="312" class="background" textLength="8"></text><text x="320" class="foreground" textLength="320"></text></g><g id="g10"><text class="foreground" textLength="320">inferal73@MacBook-Pro-Ivan ~ % brain-eve</text><text x="320" class="background" textLength="8"></text><text x="328" class="foreground" textLength="312"></text></g><g id="g11"><text class="foreground" textLength="328">inferal73@MacBook-Pro-Ivan ~ % brain-even</text><text x="328" class="background" textLength="8"></text><text x="336" class="foreground" textLength="304"></text></g><g id="g12"><text class="foreground" textLength="640">inferal73@MacBook-Pro-Ivan ~ % brain-even</text></g><g id="g13"><text class="background" textLength="8"></text></g><g id="g14"><text class="color6" textLength="216">Welcome to the Brain Games!</text></g><g id="g15"><text class="color3" textLength="176">May I have your name?</text><text x="176" class="background" textLength="8"></text></g><g id="g16"><text class="color3" textLength="176">May I have your name?</text><text x="176" class="foreground" textLength="8">I</text><text x="184" class="background" textLength="8"></text></g><g id="g17"><text class="color3" textLength="176">May I have your name?</text><text x="176" class="foreground" textLength="16">Iv</text><text x="192" class="background" textLength="8"></text></g><g id="g18"><text class="color3" textLength="176">May I have your name?</text><text x="176" class="foreground" textLength="24">Iva</text><text x="200" class="background" textLength="8"></text></g><g id="g19"><text class="color3" textLength="176">May I have your name?</text><text x="176" class="foreground" textLength="32">Ivan</text><text x="208" class="background" textLength="8"></text></g><g id="g20"><text class="color3" textLength="176">May I have your name?</text><text x="176" class="foreground" textLength="32">Ivan</text></g><g id="g21"><text class="color6" textLength="96">Hello, Ivan!</text></g><g id="g22"><text class="color6" textLength="464">Answer &quot;yes&quot; if the number is even, otherwise answer &quot;no&quot;.</text></g><g id="g23"><text class="color6" textLength="104">Question: 371</text></g><g id="g24"><text class="color3" textLength="104">Your answer:</text><text x="104" class="background" textLength="8"></text></g><g id="g25"><text class="color3" textLength="104">Your answer:</text><text x="104" class="foreground" textLength="8">n</text><text x="112" class="background" textLength="8"></text></g><g id="g26"><text class="color3" textLength="104">Your answer:</text><text x="104" class="foreground" textLength="16">no</text><text x="120" class="background" textLength="8"></text></g><g id="g27"><text class="color3" textLength="104">Your answer:</text><text x="104" class="foreground" textLength="16">no</text></g><g id="g28"><text class="color10" font-weight="bold" textLength="64">Correct!</text></g><g id="g29"><text class="color14" font-weight="bold" textLength="104">Question: 665</text></g><g id="g30"><text class="color11" font-weight="bold" textLength="104">Your answer:</text><text x="104" class="background" textLength="8"></text></g><g id="g31"><text class="color11" font-weight="bold" textLength="104">Your answer:</text><text x="104" class="foreground" font-weight="bold" textLength="8">n</text><text x="112" class="background" textLength="8"></text></g><g id="g32"><text class="color11" font-weight="bold" textLength="104">Your answer:</text><text x="104" class="foreground" font-weight="bold" textLength="16">no</text><text x="120" class="background" textLength="8"></text></g><g id="g33"><text class="color11" font-weight="bold" textLength="104">Your answer:</text><text x="104" class="foreground" font-weight="bold" textLength="16">no</text></g><g id="g34"><text class="color14" font-weight="bold" textLength="104">Question: 932</text></g><g id="g35"><text class="color11" font-weight="bold" textLength="104">Your answer:</text><text x="104" class="foreground" font-weight="bold" textLength="8">y</text><text x="112" class="background" textLength="8"></text></g><g id="g36"><text class="color11" font-weight="bold" textLength="104">Your answer:</text><text x="104" class="foreground" font-weight="bold" textLength="16">ye</text><text x="120" class="background" textLength="8"></text></g><g id="g37"><text class="color11" font-weight="bold" textLength="104">Your answer:</text><text x="104" class="foreground" font-weight="bold" textLength="24">yes</text><text x="128" class="background" textLength="8"></text></g><g id="g38"><text class="color11" font-weight="bold" textLength="104">Your answer:</text><text x="104" class="foreground" font-weight="bold" textLength="24">yes</text></g><g id="g39"><text class="color10" font-weight="bold" textLength="176">Congratulations, Ivan!</text></g><g id="g40"><text class="background" textLength="8"></text><text x="8" class="foreground" textLength="632"></text></g><g id="g41"><text class="foreground" textLength="256">inferal73@MacBook-Pro-Ivan ~ % c</text><text x="256" class="background" textLength="8"></text><text x="264" class="foreground" textLength="376"></text></g><g id="g42"><text class="foreground" textLength="264">inferal73@MacBook-Pro-Ivan ~ % cl</text><text x="264" class="background" textLength="8"></text><text x="272" class="foreground" textLength="368"></text></g><g id="g43"><text class="foreground" textLength="272">inferal73@MacBook-Pro-Ivan ~ % cle</text><text x="272" class="background" textLength="8"></text><text x="280" class="foreground" textLength="360"></text></g><g id="g44"><text class="foreground" textLength="280">inferal73@MacBook-Pro-Ivan ~ % clea</text><text x="280" class="background" textLength="8"></text><text x="288" class="foreground" textLength="352"></text></g><g id="g45"><text class="foreground" textLength="288">inferal73@MacBook-Pro-Ivan ~ % clear</text><text x="288" class="background" textLength="8"></text><text x="296" class="foreground" textLength="344"></text></g><g id="g46"><text class="foreground" textLength="640">inferal73@MacBook-Pro-Ivan ~ % clear</text></g><g id="g47"><text class="foreground" textLength="216"></text></g><g id="g48"><text class="foreground" textLength="208"></text></g><g id="g49"><text class="foreground" textLength="96"></text></g><g id="g50"><text class="foreground" textLength="464"></text></g><g id="g51"><text class="foreground" textLength="104"></text></g><g id="g52"><text class="foreground" textLength="120"></text></g><g id="g53"><text class="foreground" textLength="64"></text></g><g id="g54"><text class="foreground" textLength="128"></text></g><g id="g55"><text class="foreground" textLength="176"></text></g><g id="g56"><text class="foreground" textLength="640"></text></g><g id="g57"><text class="background" textLength="8"></text><text x="8" class="foreground" textLength="208"></text></g><g id="g58"><text class="background" textLength="8"></text><text x="8" class="foreground" textLength="200"></text></g><g id="g59"><text class="color3" textLength="176">May I have your name?</text><text x="176" class="background" textLength="8"></text><text x="184" class="foreground" textLength="24"></text></g><g id="g60"><text class="color3" textLength="176">May I have your name?</text><text x="176" class="foreground" textLength="8">I</text><text x="184" class="background" textLength="8"></text><text x="192" class="foreground" textLength="16"></text></g><g id="g61"><text class="color3" textLength="176">May I have your name?</text><text x="176" class="foreground" textLength="16">Iv</text><text x="192" class="background" textLength="8"></text><text x="200" class="foreground" textLength="8"></text></g><g id="g62"><text class="background" textLength="8"></text><text x="8" class="foreground" textLength="88"></text></g><g id="g63"><text class="color6" textLength="104">Question: 678</text></g><g id="g64"><text class="color3" textLength="104">Your answer:</text><text x="104" class="background" textLength="8"></text><text x="112" class="foreground" textLength="8"></text></g><g id="g65"><text class="background" textLength="8"></text><text x="8" class="foreground" textLength="56"></text></g><g id="g66"><text class="color9" font-weight="bold" textLength="400">&quot;no&quot; is wrong answer ;(. Correct answer was &quot;yes&quot;.</text></g><g id="g67"><text class="color9" font-weight="bold" textLength="176">Let&apos;s try again, Ivan!</text></g><g id="g68"><text class="background" textLength="8"></text><text x="8" class="foreground" textLength="112"></text></g><g id="g69"><text class="foreground" textLength="640">inferal73@MacBook-Pro-Ivan ~ %</text></g></defs><g id="screen_view"><path d="M248 0h8v17h-8z" class="foreground"/><use xlink:href="#g1"/><path d="M256 442h8v17h-8z" class="foreground"/><use y="442" xlink:href="#g2"/><path d="M264 884h8v17h-8z" class="foreground"/><use y="884" xlink:href="#g3"/><path d="M272 1326h8v17h-8z" class="foreground"/><use y="1326" xlink:href="#g4"/><path d="M280 1768h8v17h-8z" class="foreground"/><use y="1768" xlink:href="#g5"/><path d="M288 2210h8v17h-8z" class="foreground"/><use y="2210" xlink:href="#g6"/><path d="M296 2652h8v17h-8z" class="foreground"/><use y="2652" xlink:href="#g7"/><path d="M304 3094h8v17h-8z" class="foreground"/><use y="3094" xlink:href="#g8"/><path d="M312 3536h8v17h-8z" class="foreground"/><use y="3536" xlink:href="#g9"/><path d="M320 3978h8v17h-8z" class="foreground"/><use y="3978" xlink:href="#g10"/><path d="M328 4420h8v17h-8z" class="foreground"/><use y="4420" xlink:href="#g11"/><use y="4862" xlink:href="#g12"/><path d="M0 4879h8v17H0z" class="foreground"/><use y="4879" xlink:href="#g13"/><use y="5304" xlink:href="#g12"/><use y="5321" xlink:href="#g14"/><path d="M0 5338h8v17H0z" class="foreground"/><use y="5338" xlink:href="#g13"/><use y="5746" xlink:href="#g12"/><use y="5763" xlink:href="#g14"/><path d="M176 5780h8v17h-8z" class="foreground"/><use y="5780" xlink:href="#g15"/><use y="6188" xlink:href="#g12"/><use y="6205" xlink:href="#g14"/><path d="M184 6222h8v17h-8z" class="foreground"/><use y="6222" xlink:href="#g16"/><use y="6630" xlink:href="#g12"/><use y="6647" xlink:href="#g14"/><path d="M192 6664h8v17h-8z" class="foreground"/><use y="6664" xlink:href="#g17"/><use y="7072" xlink:href="#g12"/><use y="7089" xlink:href="#g14"/><path d="M200 7106h8v17h-8z" class="foreground"/><use y="7106" xlink:href="#g18"/><use y="7514" xlink:href="#g12"/><use y="7531" xlink:href="#g14"/><path d="M208 7548h8v17h-8z" class="foreground"/><use y="7548" xlink:href="#g19"/><use y="7956" xlink:href="#g12"/><use y="7973" xlink:href="#g14"/><use y="7990" xlink:href="#g20"/><path d="M0 8007h8v17H0z" class="foreground"/><use y="8007" xlink:href="#g13"/><use y="8398" xlink:href="#g12"/><use y="8415" xlink:href="#g14"/><use y="8432" xlink:href="#g20"/><use y="8449" xlink:href="#g21"/><use y="8466" xlink:href="#g22"/><use y="8483" xlink:href="#g23"/><path d="M104 8500h8v17h-8z" class="foreground"/><use y="8500" xlink:href="#g24"/><use y="8840" xlink:href="#g12"/><use y="8857" xlink:href="#g14"/><use y="8874" xlink:href="#g20"/><use y="8891" xlink:href="#g21"/><use y="8908" xlink:href="#g22"/><use y="8925" xlink:href="#g23"/><path d="M112 8942h8v17h-8z" class="foreground"/><use y="8942" xlink:href="#g25"/><g><use y="9282" xlink:href="#g12"/><use y="9299" xlink:href="#g14"/><use y="9316" xlink:href="#g20"/><use y="9333" xlink:href="#g21"/><use y="9350" xlink:href="#g22"/><use y="9367" xlink:href="#g23"/><path d="M120 9384h8v17h-8z" class="foreground"/><use y="9384" xlink:href="#g26"/></g><g><use y="9724" xlink:href="#g12"/><use y="9741" xlink:href="#g14"/><use y="9758" xlink:href="#g20"/><use y="9775" xlink:href="#g21"/><use y="9792" xlink:href="#g22"/><use y="9809" xlink:href="#g23"/><use y="9826" xlink:href="#g27"/><path d="M0 9843h8v17H0z" class="foreground"/><use y="9843" xlink:href="#g13"/></g><g><use y="10166" xlink:href="#g12"/><use y="10183" xlink:href="#g14"/><use y="10200" xlink:href="#g20"/><use y="10217" xlink:href="#g21"/><use y="10234" xlink:href="#g22"/><use y="10251" xlink:href="#g23"/><use y="10268" xlink:href="#g27"/><use y="10285" xlink:href="#g28"/><use y="10302" xlink:href="#g29"/><path d="M104 10319h8v17h-8z" class="foreground"/><use y="10319" xlink:href="#g30"/></g><g><use y="10608" xlink:href="#g12"/><use y="10625" xlink:href="#g14"/><use y="10642" xlink:href="#g20"/><use y="10659" xlink:href="#g21"/><use y="10676" xlink:href="#g22"/><use y="10693" xlink:href="#g23"/><use y="10710" xlink:href="#g27"/><use y="10727" xlink:href="#g28"/><use y="10744" xlink:href="#g29"/><path d="M112 10761h8v17h-8z" class="foreground"/><use y="10761" xlink:href="#g31"/></g><g><use y="11050" xlink:href="#g12"/><use y="11067" xlink:href="#g14"/><use y="11084" xlink:href="#g20"/><use y="11101" xlink:href="#g21"/><use y="11118" xlink:href="#g22"/><use y="11135" xlink:href="#g23"/><use y="11152" xlink:href="#g27"/><use y="11169" xlink:href="#g28"/><use y="11186" xlink:href="#g29"/><path d="M120 11203h8v17h-8z" class="foreground"/><use y="11203" xlink:href="#g32"/></g><g><use y="11492" xlink:href="#g12"/><use y="11509" xlink:href="#g14"/><use y="11526" xlink:href="#g20"/><use y="11543" xlink:href="#g21"/><use y="11560" xlink:href="#g22"/><use y="11577" xlink:href="#g23"/><use y="11594" xlink:href="#g27"/><use y="11611" xlink:href="#g28"/><use y="11628" xlink:href="#g29"/><use y="11645" xlink:href="#g33"/><path d="M0 11662h8v17H0z" class="foreground"/><use y="11662" xlink:href="#g13"/></g><g><use y="11934" xlink:href="#g12"/><use y="11951" xlink:href="#g14"/><use y="11968" xlink:href="#g20"/><use y="11985" xlink:href="#g21"/><use y="12002" xlink:href="#g22"/><use y="12019" xlink:href="#g23"/><use y="12036" xlink:href="#g27"/><use y="12053" xlink:href="#g28"/><use y="12070" xlink:href="#g29"/><use y="12087" xlink:href="#g33"/><use y="12104" xlink:href="#g28"/><use y="12121" xlink:href="#g34"/><path d="M104 12138h8v17h-8z" class="foreground"/><use y="12138" xlink:href="#g30"/></g><g><use y="12376" xlink:href="#g12"/><use y="12393" xlink:href="#g14"/><use y="12410" xlink:href="#g20"/><use y="12427" xlink:href="#g21"/><use y="12444" xlink:href="#g22"/><use y="12461" xlink:href="#g23"/><use y="12478" xlink:href="#g27"/><use y="12495" xlink:href="#g28"/><use y="12512" xlink:href="#g29"/><use y="12529" xlink:href="#g33"/><use y="12546" xlink:href="#g28"/><use y="12563" xlink:href="#g34"/><path d="M112 12580h8v17h-8z" class="foreground"/><use y="12580" xlink:href="#g35"/></g><g><use y="12818" xlink:href="#g12"/><use y="12835" xlink:href="#g14"/><use y="12852" xlink:href="#g20"/><use y="12869" xlink:href="#g21"/><use y="12886" xlink:href="#g22"/><use y="12903" xlink:href="#g23"/><use y="12920" xlink:href="#g27"/><use y="12937" xlink:href="#g28"/><use y="12954" xlink:href="#g29"/><use y="12971" xlink:href="#g33"/><use y="12988" xlink:href="#g28"/><use y="13005" xlink:href="#g34"/><path d="M120 13022h8v17h-8z" class="foreground"/><use y="13022" xlink:href="#g36"/></g><g><use y="13260" xlink:href="#g12"/><use y="13277" xlink:href="#g14"/><use y="13294" xlink:href="#g20"/><use y="13311" xlink:href="#g21"/><use y="13328" xlink:href="#g22"/><use y="13345" xlink:href="#g23"/><use y="13362" xlink:href="#g27"/><use y="13379" xlink:href="#g28"/><use y="13396" xlink:href="#g29"/><use y="13413" xlink:href="#g33"/><use y="13430" xlink:href="#g28"/><use y="13447" xlink:href="#g34"/><path d="M128 13464h8v17h-8z" class="foreground"/><use y="13464" xlink:href="#g37"/></g><g><use y="13702" xlink:href="#g12"/><use y="13719" xlink:href="#g14"/><use y="13736" xlink:href="#g20"/><use y="13753" xlink:href="#g21"/><use y="13770" xlink:href="#g22"/><use y="13787" xlink:href="#g23"/><use y="13804" xlink:href="#g27"/><use y="13821" xlink:href="#g28"/><use y="13838" xlink:href="#g29"/><use y="13855" xlink:href="#g33"/><use y="13872" xlink:href="#g28"/><use y="13889" xlink:href="#g34"/><use y="13906" xlink:href="#g38"/><path d="M0 13923h8v17H0z" class="foreground"/><use y="13923" xlink:href="#g13"/></g><g><use y="14144" xlink:href="#g12"/><use y="14161" xlink:href="#g14"/><use y="14178" xlink:href="#g20"/><use y="14195" xlink:href="#g21"/><use y="14212" xlink:href="#g22"/><use y="14229" xlink:href="#g23"/><use y="14246" xlink:href="#g27"/><use y="14263" xlink:href="#g28"/><use y="14280" xlink:href="#g29"/><use y="14297" xlink:href="#g33"/><use y="14314" xlink:href="#g28"/><use y="14331" xlink:href="#g34"/><use y="14348" xlink:href="#g38"/><use y="14365" xlink:href="#g28"/><use y="14382" xlink:href="#g39"/><path d="M0 14399h8v17H0z" class="foreground"/><use y="14399" xlink:href="#g13"/></g><g><use y="14586" xlink:href="#g12"/><use y="14603" xlink:href="#g14"/><use y="14620" xlink:href="#g20"/><use y="14637" xlink:href="#g21"/><use y="14654" xlink:href="#g22"/><use y="14671" xlink:href="#g23"/><use y="14688" xlink:href="#g27"/><use y="14705" xlink:href="#g28"/><use y="14722" xlink:href="#g29"/><use y="14739" xlink:href="#g33"/><use y="14756" xlink:href="#g28"/><use y="14773" xlink:href="#g34"/><use y="14790" xlink:href="#g38"/><use y="14807" xlink:href="#g28"/><use y="14824" xlink:href="#g39"/><path d="M0 14841h8v17H0z" class="foreground"/><use y="14841" xlink:href="#g40"/></g><g><use y="15028" xlink:href="#g12"/><use y="15045" xlink:href="#g14"/><use y="15062" xlink:href="#g20"/><use y="15079" xlink:href="#g21"/><use y="15096" xlink:href="#g22"/><use y="15113" xlink:href="#g23"/><use y="15130" xlink:href="#g27"/><use y="15147" xlink:href="#g28"/><use y="15164" xlink:href="#g29"/><use y="15181" xlink:href="#g33"/><use y="15198" xlink:href="#g28"/><use y="15215" xlink:href="#g34"/><use y="15232" xlink:href="#g38"/><use y="15249" xlink:href="#g28"/><use y="15266" xlink:href="#g39"/><path d="M0 15283h8v17H0z" class="foreground"/><use y="15283" xlink:href="#g40"/></g><g><use y="15470" xlink:href="#g12"/><use y="15487" xlink:href="#g14"/><use y="15504" xlink:href="#g20"/><use y="15521" xlink:href="#g21"/><use y="15538" xlink:href="#g22"/><use y="15555" xlink:href="#g23"/><use y="15572" xlink:href="#g27"/><use y="15589" xlink:href="#g28"/><use y="15606" xlink:href="#g29"/><use y="15623" xlink:href="#g33"/><use y="15640" xlink:href="#g28"/><use y="15657" xlink:href="#g34"/><use y="15674" xlink:href="#g38"/><use y="15691" xlink:href="#g28"/><use y="15708" xlink:href="#g39"/><path d="M248 15725h8v17h-8z" class="foreground"/><use y="15725" xlink:href="#g1"/></g><g><use y="15912" xlink:href="#g12"/><use y="15929" xlink:href="#g14"/><use y="15946" xlink:href="#g20"/><use y="15963" xlink:href="#g21"/><use y="15980" xlink:href="#g22"/><use y="15997" xlink:href="#g23"/><use y="16014" xlink:href="#g27"/><use y="16031" xlink:href="#g28"/><use y="16048" xlink:href="#g29"/><use y="16065" xlink:href="#g33"/><use y="16082" xlink:href="#g28"/><use y="16099" xlink:href="#g34"/><use y="16116" xlink:href="#g38"/><use y="16133" xlink:href="#g28"/><use y="16150" xlink:href="#g39"/><path d="M256 16167h8v17h-8z" class="foreground"/><use y="16167" xlink:href="#g41"/></g><g><use y="16354" xlink:href="#g12"/><use y="16371" xlink:href="#g14"/><use y="16388" xlink:href="#g20"/><use y="16405" xlink:href="#g21"/><use y="16422" xlink:href="#g22"/><use y="16439" xlink:href="#g23"/><use y="16456" xlink:href="#g27"/><use y="16473" xlink:href="#g28"/><use y="16490" xlink:href="#g29"/><use y="16507" xlink:href="#g33"/><use y="16524" xlink:href="#g28"/><use y="16541" xlink:href="#g34"/><use y="16558" xlink:href="#g38"/><use y="16575" xlink:href="#g28"/><use y="16592" xlink:href="#g39"/><path d="M264 16609h8v17h-8z" class="foreground"/><use y="16609" xlink:href="#g42"/></g><g><use y="16796" xlink:href="#g12"/><use y="16813" xlink:href="#g14"/><use y="16830" xlink:href="#g20"/><use y="16847" xlink:href="#g21"/><use y="16864" xlink:href="#g22"/><use y="16881" xlink:href="#g23"/><use y="16898" xlink:href="#g27"/><use y="16915" xlink:href="#g28"/><use y="16932" xlink:href="#g29"/><use y="16949" xlink:href="#g33"/><use y="16966" xlink:href="#g28"/><use y="16983" xlink:href="#g34"/><use y="17000" xlink:href="#g38"/><use y="17017" xlink:href="#g28"/><use y="17034" xlink:href="#g39"/><path d="M272 17051h8v17h-8z" class="foreground"/><use y="17051" xlink:href="#g43"/></g><g><use y="17238" xlink:href="#g12"/><use y="17255" xlink:href="#g14"/><use y="17272" xlink:href="#g20"/><use y="17289" xlink:href="#g21"/><use y="17306" xlink:href="#g22"/><use y="17323" xlink:href="#g23"/><use y="17340" xlink:href="#g27"/><use y="17357" xlink:href="#g28"/><use y="17374" xlink:href="#g29"/><use y="17391" xlink:href="#g33"/><use y="17408" xlink:href="#g28"/><use y="17425" xlink:href="#g34"/><use y="17442" xlink:href="#g38"/><use y="17459" xlink:href="#g28"/><use y="17476" xlink:href="#g39"/><path d="M280 17493h8v17h-8z" class="foreground"/><use y="17493" xlink:href="#g44"/></g><g><use y="17680" xlink:href="#g12"/><use y="17697" xlink:href="#g14"/><use y="17714" xlink:href="#g20"/><use y="17731" xlink:href="#g21"/><use y="17748" xlink:href="#g22"/><use y="17765" xlink:href="#g23"/><use y="17782" xlink:href="#g27"/><use y="17799" xlink:href="#g28"/><use y="17816" xlink:href="#g29"/><use y="17833" xlink:href="#g33"/><use y="17850" xlink:href="#g28"/><use y="17867" xlink:href="#g34"/><use y="17884" xlink:href="#g38"/><use y="17901" xlink:href="#g28"/><use y="17918" xlink:href="#g39"/><path d="M288 17935h8v17h-8z" class="foreground"/><use y="17935" xlink:href="#g45"/></g><g><use y="18122" xlink:href="#g12"/><use y="18139" xlink:href="#g14"/><use y="18156" xlink:href="#g20"/><use y="18173" xlink:href="#g21"/><use y="18190" xlink:href="#g22"/><use y="18207" xlink:href="#g23"/><use y="18224" xlink:href="#g27"/><use y="18241" xlink:href="#g28"/><use y="18258" xlink:href="#g29"/><use y="18275" xlink:href="#g33"/><use y="18292" xlink:href="#g28"/><use y="18309" xlink:href="#g34"/><use y="18326" xlink:href="#g38"/><use y="18343" xlink:href="#g28"/><use y="18360" xlink:href="#g39"/><use y="18377" xlink:href="#g46"/><path d="M0 18394h8v17H0z" class="foreground"/><use y="18394" xlink:href="#g13"/></g><g><path d="M0 18564h8v17H0z" class="foreground"/><use y="18564" xlink:href="#g40"/><use y="18581" xlink:href="#g47"/><use y="18598" xlink:href="#g48"/><use y="18615" xlink:href="#g49"/><use y="18632" xlink:href="#g50"/><use y="18649" xlink:href="#g51"/><use y="18666" xlink:href="#g52"/><use y="18683" xlink:href="#g53"/><use y="18700" xlink:href="#g51"/><use y="18717" xlink:href="#g52"/><use y="18734" xlink:href="#g53"/><use y="18751" xlink:href="#g51"/><use y="18768" xlink:href="#g54"/><use y="18785" xlink:href="#g53"/><use y="18802" xlink:href="#g55"/><use y="18819" xlink:href="#g56"/></g><g><path d="M0 19006h8v17H0z" class="foreground"/><use y="19006" xlink:href="#g40"/><use y="19023" xlink:href="#g47"/><use y="19040" xlink:href="#g48"/><use y="19057" xlink:href="#g49"/><use y="19074" xlink:href="#g50"/><use y="19091" xlink:href="#g51"/><use y="19108" xlink:href="#g52"/><use y="19125" xlink:href="#g53"/><use y="19142" xlink:href="#g51"/><use y="19159" xlink:href="#g52"/><use y="19176" xlink:href="#g53"/><use y="19193" xlink:href="#g51"/><use y="19210" xlink:href="#g54"/><use y="19227" xlink:href="#g53"/><use y="19244" xlink:href="#g55"/><use y="19261" xlink:href="#g56"/></g><g><path d="M248 19448h8v17h-8z" class="foreground"/><use y="19448" xlink:href="#g1"/><use y="19465" xlink:href="#g47"/><use y="19482" xlink:href="#g48"/><use y="19499" xlink:href="#g49"/><use y="19516" xlink:href="#g50"/><use y="19533" xlink:href="#g51"/><use y="19550" xlink:href="#g52"/><use y="19567" xlink:href="#g53"/><use y="19584" xlink:href="#g51"/><use y="19601" xlink:href="#g52"/><use y="19618" xlink:href="#g53"/><use y="19635" xlink:href="#g51"/><use y="19652" xlink:href="#g54"/><use y="19669" xlink:href="#g53"/><use y="19686" xlink:href="#g55"/><use y="19703" xlink:href="#g56"/></g><g><path d="M288 19890h8v17h-8z" class="foreground"/><use y="19890" xlink:href="#g45"/><use y="19907" xlink:href="#g47"/><use y="19924" xlink:href="#g48"/><use y="19941" xlink:href="#g49"/><use y="19958" xlink:href="#g50"/><use y="19975" xlink:href="#g51"/><use y="19992" xlink:href="#g52"/><use y="20009" xlink:href="#g53"/><use y="20026" xlink:href="#g51"/><use y="20043" xlink:href="#g52"/><use y="20060" xlink:href="#g53"/><use y="20077" xlink:href="#g51"/><use y="20094" xlink:href="#g54"/><use y="20111" xlink:href="#g53"/><use y="20128" xlink:href="#g55"/><use y="20145" xlink:href="#g56"/></g><g><path d="M328 20332h8v17h-8z" class="foreground"/><use y="20332" xlink:href="#g11"/><use y="20349" xlink:href="#g47"/><use y="20366" xlink:href="#g48"/><use y="20383" xlink:href="#g49"/><use y="20400" xlink:href="#g50"/><use y="20417" xlink:href="#g51"/><use y="20434" xlink:href="#g52"/><use y="20451" xlink:href="#g53"/><use y="20468" xlink:href="#g51"/><use y="20485" xlink:href="#g52"/><use y="20502" xlink:href="#g53"/><use y="20519" xlink:href="#g51"/><use y="20536" xlink:href="#g54"/><use y="20553" xlink:href="#g53"/><use y="20570" xlink:href="#g55"/><use y="20587" xlink:href="#g56"/></g><g><use y="20774" xlink:href="#g12"/><path d="M0 20791h8v17H0z" class="foreground"/><use y="20791" xlink:href="#g57"/><use y="20808" xlink:href="#g48"/><use y="20825" xlink:href="#g49"/><use y="20842" xlink:href="#g50"/><use y="20859" xlink:href="#g51"/><use y="20876" xlink:href="#g52"/><use y="20893" xlink:href="#g53"/><use y="20910" xlink:href="#g51"/><use y="20927" xlink:href="#g52"/><use y="20944" xlink:href="#g53"/><use y="20961" xlink:href="#g51"/><use y="20978" xlink:href="#g54"/><use y="20995" xlink:href="#g53"/><use y="21012" xlink:href="#g55"/><use y="21029" xlink:href="#g56"/></g><g><use y="21216" xlink:href="#g12"/><use y="21233" xlink:href="#g14"/><path d="M0 21250h8v17H0z" class="foreground"/><use y="21250" xlink:href="#g58"/><use y="21267" xlink:href="#g49"/><use y="21284" xlink:href="#g50"/><use y="21301" xlink:href="#g51"/><use y="21318" xlink:href="#g52"/><use y="21335" xlink:href="#g53"/><use y="21352" xlink:href="#g51"/><use y="21369" xlink:href="#g52"/><use y="21386" xlink:href="#g53"/><use y="21403" xlink:href="#g51"/><use y="21420" xlink:href="#g54"/><use y="21437" xlink:href="#g53"/><use y="21454" xlink:href="#g55"/><use y="21471" xlink:href="#g56"/></g><g><use y="21658" xlink:href="#g12"/><use y="21675" xlink:href="#g14"/><path d="M176 21692h8v17h-8z" class="foreground"/><use y="21692" xlink:href="#g59"/><use y="21709" xlink:href="#g49"/><use y="21726" xlink:href="#g50"/><use y="21743" xlink:href="#g51"/><use y="21760" xlink:href="#g52"/><use y="21777" xlink:href="#g53"/><use y="21794" xlink:href="#g51"/><use y="21811" xlink:href="#g52"/><use y="21828" xlink:href="#g53"/><use y="21845" xlink:href="#g51"/><use y="21862" xlink:href="#g54"/><use y="21879" xlink:href="#g53"/><use y="21896" xlink:href="#g55"/><use y="21913" xlink:href="#g56"/></g><g><use y="22100" xlink:href="#g12"/><use y="22117" xlink:href="#g14"/><path d="M184 22134h8v17h-8z" class="foreground"/><use y="22134" xlink:href="#g60"/><use y="22151" xlink:href="#g49"/><use y="22168" xlink:href="#g50"/><use y="22185" xlink:href="#g51"/><use y="22202" xlink:href="#g52"/><use y="22219" xlink:href="#g53"/><use y="22236" xlink:href="#g51"/><use y="22253" xlink:href="#g52"/><use y="22270" xlink:href="#g53"/><use y="22287" xlink:href="#g51"/><use y="22304" xlink:href="#g54"/><use y="22321" xlink:href="#g53"/><use y="22338" xlink:href="#g55"/><use y="22355" xlink:href="#g56"/></g><g><use y="22542" xlink:href="#g12"/><use y="22559" xlink:href="#g14"/><path d="M192 22576h8v17h-8z" class="foreground"/><use y="22576" xlink:href="#g61"/><use y="22593" xlink:href="#g49"/><use y="22610" xlink:href="#g50"/><use y="22627" xlink:href="#g51"/><use y="22644" xlink:href="#g52"/><use y="22661" xlink:href="#g53"/><use y="22678" xlink:href="#g51"/><use y="22695" xlink:href="#g52"/><use y="22712" xlink:href="#g53"/><use y="22729" xlink:href="#g51"/><use y="22746" xlink:href="#g54"/><use y="22763" xlink:href="#g53"/><use y="22780" xlink:href="#g55"/><use y="22797" xlink:href="#g56"/></g><g><use y="22984" xlink:href="#g12"/><use y="23001" xlink:href="#g14"/><path d="M200 23018h8v17h-8z" class="foreground"/><use y="23018" xlink:href="#g18"/><use y="23035" xlink:href="#g49"/><use y="23052" xlink:href="#g50"/><use y="23069" xlink:href="#g51"/><use y="23086" xlink:href="#g52"/><use y="23103" xlink:href="#g53"/><use y="23120" xlink:href="#g51"/><use y="23137" xlink:href="#g52"/><use y="23154" xlink:href="#g53"/><use y="23171" xlink:href="#g51"/><use y="23188" xlink:href="#g54"/><use y="23205" xlink:href="#g53"/><use y="23222" xlink:href="#g55"/><use y="23239" xlink:href="#g56"/></g><g><use y="23426" xlink:href="#g12"/><use y="23443" xlink:href="#g14"/><path d="M208 23460h8v17h-8z" class="foreground"/><use y="23460" xlink:href="#g19"/><use y="23477" xlink:href="#g49"/><use y="23494" xlink:href="#g50"/><use y="23511" xlink:href="#g51"/><use y="23528" xlink:href="#g52"/><use y="23545" xlink:href="#g53"/><use y="23562" xlink:href="#g51"/><use y="23579" xlink:href="#g52"/><use y="23596" xlink:href="#g53"/><use y="23613" xlink:href="#g51"/><use y="23630" xlink:href="#g54"/><use y="23647" xlink:href="#g53"/><use y="23664" xlink:href="#g55"/><use y="23681" xlink:href="#g56"/></g><g><use y="23868" xlink:href="#g12"/><use y="23885" xlink:href="#g14"/><use y="23902" xlink:href="#g20"/><path d="M0 23919h8v17H0z" class="foreground"/><use y="23919" xlink:href="#g62"/><use y="23936" xlink:href="#g50"/><use y="23953" xlink:href="#g51"/><use y="23970" xlink:href="#g52"/><use y="23987" xlink:href="#g53"/><use y="24004" xlink:href="#g51"/><use y="24021" xlink:href="#g52"/><use y="24038" xlink:href="#g53"/><use y="24055" xlink:href="#g51"/><use y="24072" xlink:href="#g54"/><use y="24089" xlink:href="#g53"/><use y="24106" xlink:href="#g55"/><use y="24123" xlink:href="#g56"/></g><g><use y="24310" xlink:href="#g12"/><use y="24327" xlink:href="#g14"/><use y="24344" xlink:href="#g20"/><use y="24361" xlink:href="#g21"/><use y="24378" xlink:href="#g22"/><use y="24395" xlink:href="#g63"/><path d="M104 24412h8v17h-8z" class="foreground"/><use y="24412" xlink:href="#g64"/><use y="24429" xlink:href="#g53"/><use y="24446" xlink:href="#g51"/><use y="24463" xlink:href="#g52"/><use y="24480" xlink:href="#g53"/><use y="24497" xlink:href="#g51"/><use y="24514" xlink:href="#g54"/><use y="24531" xlink:href="#g53"/><use y="24548" xlink:href="#g55"/><use y="24565" xlink:href="#g56"/></g><g><use y="24752" xlink:href="#g12"/><use y="24769" xlink:href="#g14"/><use y="24786" xlink:href="#g20"/><use y="24803" xlink:href="#g21"/><use y="24820" xlink:href="#g22"/><use y="24837" xlink:href="#g63"/><path d="M112 24854h8v17h-8z" class="foreground"/><use y="24854" xlink:href="#g25"/><use y="24871" xlink:href="#g53"/><use y="24888" xlink:href="#g51"/><use y="24905" xlink:href="#g52"/><use y="24922" xlink:href="#g53"/><use y="24939" xlink:href="#g51"/><use y="24956" xlink:href="#g54"/><use y="24973" xlink:href="#g53"/><use y="24990" xlink:href="#g55"/><use y="25007" xlink:href="#g56"/></g><g><use y="25194" xlink:href="#g12"/><use y="25211" xlink:href="#g14"/><use y="25228" xlink:href="#g20"/><use y="25245" xlink:href="#g21"/><use y="25262" xlink:href="#g22"/><use y="25279" xlink:href="#g63"/><path d="M120 25296h8v17h-8z" class="foreground"/><use y="25296" xlink:href="#g26"/><use y="25313" xlink:href="#g53"/><use y="25330" xlink:href="#g51"/><use y="25347" xlink:href="#g52"/><use y="25364" xlink:href="#g53"/><use y="25381" xlink:href="#g51"/><use y="25398" xlink:href="#g54"/><use y="25415" xlink:href="#g53"/><use y="25432" xlink:href="#g55"/><use y="25449" xlink:href="#g56"/></g><g><use y="25636" xlink:href="#g12"/><use y="25653" xlink:href="#g14"/><use y="25670" xlink:href="#g20"/><use y="25687" xlink:href="#g21"/><use y="25704" xlink:href="#g22"/><use y="25721" xlink:href="#g63"/><use y="25738" xlink:href="#g27"/><path d="M0 25755h8v17H0z" class="foreground"/><use y="25755" xlink:href="#g65"/><use y="25772" xlink:href="#g51"/><use y="25789" xlink:href="#g52"/><use y="25806" xlink:href="#g53"/><use y="25823" xlink:href="#g51"/><use y="25840" xlink:href="#g54"/><use y="25857" xlink:href="#g53"/><use y="25874" xlink:href="#g55"/><use y="25891" xlink:href="#g56"/></g><g><use y="26078" xlink:href="#g12"/><use y="26095" xlink:href="#g14"/><use y="26112" xlink:href="#g20"/><use y="26129" xlink:href="#g21"/><use y="26146" xlink:href="#g22"/><use y="26163" xlink:href="#g63"/><use y="26180" xlink:href="#g27"/><use y="26197" xlink:href="#g66"/><use y="26214" xlink:href="#g67"/><path d="M0 26231h8v17H0z" class="foreground"/><use y="26231" xlink:href="#g68"/><use y="26248" xlink:href="#g53"/><use y="26265" xlink:href="#g51"/><use y="26282" xlink:href="#g54"/><use y="26299" xlink:href="#g53"/><use y="26316" xlink:href="#g55"/><use y="26333" xlink:href="#g56"/></g><g><use y="26520" xlink:href="#g12"/><use y="26537" xlink:href="#g14"/><use y="26554" xlink:href="#g20"/><use y="26571" xlink:href="#g21"/><use y="26588" xlink:href="#g22"/><use y="26605" xlink:href="#g63"/><use y="26622" xlink:href="#g27"/><use y="26639" xlink:href="#g66"/><use y="26656" xlink:href="#g67"/><path d="M0 26673h8v17H0z" class="foreground"/><use y="26673" xlink:href="#g40"/><use y="26690" xlink:href="#g53"/><use y="26707" xlink:href="#g51"/><use y="26724" xlink:href="#g54"/><use y="26741" xlink:href="#g53"/><use y="26758" xlink:href="#g55"/><use y="26775" xlink:href="#g56"/></g><g><use y="26962" xlink:href="#g12"/><use y="26979" xlink:href="#g14"/><use y="26996" xlink:href="#g20"/><use y="27013" xlink:href="#g21"/><use y="27030" xlink:href="#g22"/><use y="27047" xlink:href="#g63"/><use y="27064" xlink:href="#g27"/><use y="27081" xlink:href="#g66"/><use y="27098" xlink:href="#g67"/><path d="M248 27115h8v17h-8z" class="foreground"/><use y="27115" xlink:href="#g1"/><use y="27132" xlink:href="#g53"/><use y="27149" xlink:href="#g51"/><use y="27166" xlink:href="#g54"/><use y="27183" xlink:href="#g53"/><use y="27200" xlink:href="#g55"/><use y="27217" xlink:href="#g56"/></g><g><use y="27404" xlink:href="#g12"/><use y="27421" xlink:href="#g14"/><use y="27438" xlink:href="#g20"/><use y="27455" xlink:href="#g21"/><use y="27472" xlink:href="#g22"/><use y="27489" xlink:href="#g63"/><use y="27506" xlink:href="#g27"/><use y="27523" xlink:href="#g66"/><use y="27540" xlink:href="#g67"/><use y="27557" xlink:href="#g69"/><path d="M0 27574h8v17H0z" class="foreground"/><use y="27574" xlink:href="#g65"/><use y="27591" xlink:href="#g51"/><use y="27608" xlink:href="#g54"/><use y="27625" xlink:href="#g53"/><use y="27642" xlink:href="#g55"/><use y="27659" xlink:href="#g56"/></g></g></svg></svg>